<?xml version="1.0" encoding="UTF-8"?>
<svg  viewBox="0 0 72 72" version="1.1" xmlns="http://www.w3.org/2000/svg" xmlns:xlink="http://www.w3.org/1999/xlink">
    <!-- Generator: Sketch 49.2 (51160) - http://www.bohemiancoding.com/sketch -->
    <title>Shopify</title>
    <desc>Created with Sketch.</desc>
    <defs></defs>
    <g id="Page-1" stroke="none" stroke-width="1" fill="none" fill-rule="evenodd">
        <g id="Social-Icons---Squared-Black" transform="translate(-40.000000, -1051.000000)">
            <g id="Shopify" transform="translate(40.000000, 1051.000000)">
                <polygon id="Square" fill="#000000" points="0 72 72 72 72 0 0 0"></polygon>
                <path d="M44.2870868,59.5549659 L45.8471001,18.9946203 C46.6336569,19.7795096 47.5250364,20.6685 47.5250364,20.6685 C47.5250364,20.6685 51.1953161,20.9415 51.3684566,20.9565 C51.5430897,20.9715 51.7535449,21.105 51.7863819,21.3465 C51.8192189,21.588 57,56.7915 57,56.7915 L44.2870868,59.5549659 Z M42.2687335,59.9937049 L42.239774,60 L15,54.8715 C15,54.8715 18.4956466,27.702 18.6284872,26.7435 C18.8031202,25.479 18.8449128,25.437 20.1822737,25.0155 C20.3986993,24.9465 22.0987597,24.417 24.4928747,23.6715 C25.4152955,19.74 28.3586837,12 34.5186041,12 C35.3231103,12 36.2544867,12.435 37.0067522,13.434 C37.0813817,13.4295 37.1575038,13.4265 37.2306407,13.4265 C39.8740183,13.4265 41.3770568,15.69 42.2293258,18.153 C43.099506,17.883 43.6248978,17.7195 43.6562422,17.7105 C43.7150176,17.6930294 43.7995042,17.6738286 43.8969062,17.6612144 L42.2687335,59.9937049 Z M36.8052525,19.572 C36.8052525,17.7255 36.5574825,16.356 36.1798571,15.402 C34.6768187,16.05 32.9588472,17.7675 32.0423967,21.3225 C33.6752905,20.814 35.3037066,20.307 36.8037599,19.8405 C36.8037599,19.7535 36.8052525,19.6665 36.8052525,19.572 Z M34.3484488,13.6605 C29.924411,13.6605 27.439248,19.4985 26.3929422,23.0805 C27.5735812,22.713 28.8497459,22.3155 30.1557625,21.909 C31.0498241,17.214 33.1648246,14.862 35.1395217,13.929 C34.8827961,13.752 34.6156224,13.6605 34.3484488,13.6605 Z M35.4096805,34.593 L37.2306407,29.1525 C37.2306407,29.1525 35.9992537,28.4355 33.509613,28.4355 C27.0466968,28.4355 23.8450904,32.7735 23.8450904,37.2555 C23.8450904,42.582 29.1333381,42.7275 29.1333381,45.969 C29.1333381,46.752 28.5810796,47.8245 27.2273002,47.8245 C25.1525996,47.8245 22.6943033,45.7035 22.6943033,45.7035 L21.44202,49.86 C21.44202,49.86 23.8331497,52.785 28.5094353,52.785 C32.4065887,52.785 35.2962436,49.836 35.2962436,45.258 C35.2962436,39.438 28.8512385,38.4855 28.8512385,36 C28.8512385,35.5455 28.9960198,33.738 31.8617932,33.738 C33.815594,33.738 35.4096805,34.593 35.4096805,34.593 Z M38.4187427,19.338 C39.2620562,19.0755 40.0396958,18.834 40.7233022,18.621 C40.1396993,16.8285 39.2322044,15.27 37.8694694,15.099 C38.2082874,16.0755 38.4202353,17.3085 38.4202353,18.8385 C38.4202353,19.014 38.4187427,19.1745 38.4187427,19.338 Z" fill="#FFFFFF"></path>
            </g>
        </g>
    </g>
</svg>